{"title":"Naruto Shippuden 89 DVBrip xvid audio castellano","uid":6087819,"size":132218154,"categoryP":"video","categoryS":"tv_shows","magnet":"?xt=urn:btih:283f55962b50e1304d22140ca686e60fb940d87b&amp;dn=Naruto+Shippuden+89+DVBrip+xvid+audio+castellano&amp;tr=udp%3A%2F%2Ftracker.openbittorrent.com%3A80&amp;tr=udp%3A%2F%2Fopen.demonii.com%3A1337&amp;tr=udp%3A%2F%2Ftracker.coppersurfer.tk%3A6969&amp;tr=udp%3A%2F%2Fexodus.desync.com%3A6969","seeders":0,"leechers":0,"uploader":"ratabit","files":2,"time":1294411386,"description":"NOTA: Los primeros 5 minutos son subtitulados y estÃƒÂ¡n en fichero aparte.\n\nMEDIAINFO:\nGeneral\nComplete name                    : D:\\tem\\narut\\subida\\Naruto Shippuden 89 DVBrip xvid audio castellano.avi\nFormat                           : AVI\nFormat/Info                      : Audio Video Interleave\nFile size                        : 99.8 MiB\nDuration                         : 14mn 47s\nOverall bit rate                 : 943 Kbps\nWriting application              : VirtualDubMod 1.5.10.4 || AKO+ || (build 2550/release)\nWriting library                  : VirtualDubMod build 2550/release\n\nVideo\nID                               : 0\nFormat                           : MPEG-4 Visual\nFormat profile                   : Advanced Simple@L5\nFormat settings, BVOP            : Yes\nFormat settings, QPel            : No\nFormat settings, GMC             : No warppoints\nFormat settings, Matrix          : Default (MPEG)\nCodec ID                         : XVID\nCodec ID/Hint                    : XviD\nDuration                         : 14mn 47s\nBit rate                         : 805 Kbps\nWidth                            : 640 pixels\nHeight                           : 356 pixels\nDisplay aspect ratio             : 16:9\nFrame rate                       : 25.000 fps\nColor space                      : YUV\nChroma subsampling               : 4:2:0\nBit depth                        : 8 bits\nScan type                        : Progressive\nCompression mode                 : Lossy\nBits/(Pixel*Frame)               : 0.141\nStream size                      : 85.2 MiB (85%)\nWriting library                  : XviD 58\n\nAudio\nID                               : 1\nFormat                           : MPEG Audio\nFormat version                   : Version 1\nFormat profile                   : Layer 2\nCodec ID                         : 50\nDuration                         : 14mn 47s\nBit rate mode                    : Constant\nBit rate                         : 128 Kbps\nChannel(s)                       : 2 channels\nSampling rate                    : 48.0 KHz\nCompression mode                 : Lossy\nStream size                      : 13.5 MiB (14%)\nAlignment                        : Aligned on interleaves\nInterleave, duration             : 40 ms (1.00 video frame)\nInterleave, preload duration     : 504 ms\n\n","torrent":{"xt":"urn:btih:283f55962b50e1304d22140ca686e60fb940d87b","amp;dn":"Naruto+Shippuden+89+DVBrip+xvid+audio+castellano","amp;tr":["udp%3A%2F%2Ftracker.openbittorrent.com%3A80","udp%3A%2F%2Fopen.demonii.com%3A1337","udp%3A%2F%2Ftracker.coppersurfer.tk%3A6969","udp%3A%2F%2Fexodus.desync.com%3A6969"],"infoHash":"283f55962b50e1304d22140ca686e60fb940d87b","infoHashBuffer":{"type":"Buffer","data":[40,63,85,150,43,80,225,48,77,34,20,12,166,134,230,15,185,64,216,123]},"announce":[],"urlList":[]}}